<?xml version="1.0" encoding="utf-8"?>
<!-- Generator: Adobe Illustrator 17.0.0, SVG Export Plug-In . SVG Version: 6.00 Build 0)  -->
<!DOCTYPE svg PUBLIC "-//W3C//DTD SVG 1.1//EN" "http://www.w3.org/Graphics/SVG/1.1/DTD/svg11.dtd">
<svg version="1.1" xmlns="http://www.w3.org/2000/svg" xmlns:xlink="http://www.w3.org/1999/xlink" x="0px" y="0px" width="800px"
	 height="600px" viewBox="0 0 800 600" style="enable-background:new 0 0 800 600;" xml:space="preserve">
<style type="text/css">
	.st0{fill:#2773B7;}
	.st1{fill:#FFFFFF;}
	.st2{font-family:'MyriadPro-Bold';}
	.st3{font-size:21;}
	.st4{fill:#F7C452;}
	.st5{font-size:14;}
	.st6{fill:#B77D08;}
	.svgFundo{fill:#FFAAAA;}
</style>
<g id="Fundo">
	<rect class="svgFundo" width="800" height="600"/> 
</g>
<g id="biggest">
	<g id="Big1">
		<circle id="BigCirc1" class="st0" cx="400" cy="300" r="80"/>
		<text id="BigTexto1" transform="matrix(1 0 0 1 348.8752 283.2918)"><tspan x="0" y="0" class="st1 st2 st3">EDUCAÇÃO</tspan><tspan x="48.3" y="25.2" class="st1 st2 st3">E</tspan><tspan x="-14.1" y="50.4" class="st1 st2 st3">TECNOLOGIAS</tspan></text>
	</g>
	<g id="Big2">
		<circle id="BigCirc2" class="st0" cx="621.6" cy="460" r="80"/>
		<text id="BigTexto2" transform="matrix(1 0 0 1 569.3752 443.7917)"><tspan x="0" y="0" class="st1 st2 st3">EDUCAÇÃO</tspan><tspan x="47" y="25.2" class="st1 st2 st3">A</tspan><tspan x="1.9" y="50.4" class="st1 st2 st3">DISTÂNCIA</tspan></text>
	</g>
	<g id="Big3">
		<circle id="BigCirc3" class="st0" cx="594.5" cy="121.9" r="80"/>
		<text id="BigTexto3" transform="matrix(1 0 0 1 520.6439 131.1248)" class="st1 st2 st3">COMUNICAÇÃO</text>
	</g>
	<g id="Big4">
		<circle id="BigCirc4" class="st0" cx="147" cy="460" r="80"/>
		<text id="BigTexto4" transform="matrix(1 0 0 1 96.7775 443.7918)"><tspan x="0" y="0" class="st1 st2 st3">FORMAÇÃO</tspan><tspan x="42.8" y="25.2" class="st1 st2 st3">DE</tspan><tspan x="-11.6" y="50.4" class="st1 st2 st3">PROFESSORES</tspan></text>
	</g>
</g>
<g id="medium">
	<circle id="MedCirc8" class="st4" cx="147" cy="102.1" r="40"/>
	<circle id="MedCirc7" class="st4" cx="474.5" cy="490.2" r="40"/>
	<circle id="MedCirc6" class="st4" cx="79.8" cy="295" r="40"/>
	<circle id="MedCirc5" class="st4" cx="251.2" cy="530.2" r="40"/>
	<circle id="MedCirc4" class="st4" cx="480" cy="58.8" r="40"/>
	<circle id="MedCirc3" class="st4" cx="541.6" cy="304.4" r="40"/>
	<circle id="MedCirc2" class="st4" cx="267" cy="313.8" r="40"/>
	<g id="Med1">
		<circle id="MedCirc1" class="st4" cx="336" cy="180" r="40"/>
		<text id="MedTexto1" transform="matrix(1 0 0 1 319.3328 177)"><tspan x="0" y="0" class="st2 st5">Mídia</tspan><tspan x="-12.1" y="16.8" class="st2 st5">Educação</tspan></text>
	</g>
</g>
<g id="smallest">
	<circle id="SmCirc9" class="st6" cx="45.1" cy="216.9" r="15"/>
	<circle id="SmCirc8" class="st6" cx="189.9" cy="256.7" r="15"/>
	<circle id="SmCirc7" class="st6" cx="415" cy="142.1" r="15"/>
	<circle id="SmCirc6" class="st6" cx="282" cy="136.9" r="15"/>
	<circle id="SmCirc5" class="st6" cx="707.6" cy="225.5" r="15"/>
	<circle id="SmCirc4" class="st6" cx="623.3" cy="359.4" r="15"/>
	<circle id="SmCirc3" class="st6" cx="282" cy="483.8" r="15"/>
	<circle id="SmCirc2" class="st6" cx="510.8" cy="438" r="15"/>
	<circle id="SmCirc1" class="st6" cx="54.8" cy="523.4" r="15"/>
</g>
</svg>
